<svg width="188" height="189" viewBox="0 0 188 189" fill="none" xmlns="http://www.w3.org/2000/svg">
<mask id="mask0_1_1670" style="mask-type:alpha" maskUnits="userSpaceOnUse" x="28" y="0" width="161" height="142">
<path d="M28.3467 0.522766H188.262V141.186H28.3467V0.522766Z" fill="white"/>
</mask>
<g mask="url(#mask0_1_1670)">
<path fill-rule="evenodd" clip-rule="evenodd" d="M154.623 138.035C183.709 123.643 189.735 97.4864 187.985 74.0587C187.693 70.1467 188.22 66.0162 185.411 62.6128C182.598 59.2128 176.183 56.9402 171.097 58.6487C166.878 60.0671 165.108 63.4679 162.798 66.291C159.727 70.0477 155.086 73.1805 149.583 75.2125C145.969 76.5481 141.477 77.3912 137.841 76.0761C132.857 74.272 132.159 69.6167 132.097 65.7226C131.98 58.4686 131.865 51.2147 131.753 43.9607C131.69 40.0692 131.609 36.0957 129.744 32.4226C127.88 28.7487 123.879 25.365 118.434 24.3904C112.99 23.4158 106.343 25.6278 105.293 29.4511C104.856 31.0418 105.37 32.6821 105.252 34.2993C105.134 35.9165 104.078 37.7163 101.842 38.1925C99.5784 38.6756 97.2731 37.5994 95.541 36.4789C89.5637 32.6189 85.4474 27.6035 81.594 22.6127C77.7393 17.622 73.991 12.511 68.5481 8.28573C63.1089 4.06307 55.6448 0.752708 47.4774 0.531676C39.3111 0.31235 30.7044 3.85228 28.7808 9.34737C26.8497 14.8595 31.6718 20.3708 36.8832 24.7531C44.6114 31.2543 53.705 36.9781 63.7873 41.6847C65.6045 42.5355 67.5756 43.4529 68.299 44.8867C69.5993 47.4674 66.065 50.0856 62.338 50.9817C58.1141 51.9981 53.5022 51.7498 49.068 52.1594C44.6339 52.569 39.8568 53.9635 38.2473 56.8506C36.0146 60.8556 40.9869 64.9682 45.8454 67.6436C55.5785 73.0004 66.642 77.1924 78.4026 79.9805C82.6177 80.9798 87.0506 81.8477 90.4798 83.8208C93.9103 85.7922 96.0366 89.2655 94.063 92.0306C92.0893 94.7999 86.8704 95.7369 82.4688 95.2308C78.0672 94.7265 74.0948 93.1443 69.886 92.1159C62.0076 90.1872 51.9065 90.6736 47.008 95.3546C43.7879 98.4303 43.6026 102.666 45.3598 106.267C47.1157 109.87 50.5736 112.949 54.2369 115.786C67.0362 125.697 83.2998 133.605 101.567 137.695C119.832 141.785 136.689 142.755 154.623 138.035Z" fill="#F3AF47"/>
<path fill-rule="evenodd" clip-rule="evenodd" d="M157.421 173.591C157.967 168.367 157.561 165.429 156.058 156.097C154.589 146.769 151.344 135.772 145.984 123.94C140.655 112.099 133.253 99.4514 124.853 86.4071C122.734 83.153 120.644 79.9357 118.581 76.7653C116.511 73.6042 114.459 70.4688 112.177 67.4879C107.652 61.5115 102.641 56.0036 97.6446 50.878C92.6523 45.7482 87.6424 41.0041 82.9116 36.5946C78.1646 32.1901 73.6278 28.1416 69.2662 24.5735C60.5681 17.4117 52.5784 12.2178 46.8789 8.80676C44.0355 7.09483 41.7677 5.81643 40.2108 4.96473L38.4349 4.00208C38.0306 3.78873 37.8191 3.68462 37.8066 3.694C37.7941 3.7051 37.9843 3.82799 38.3685 4.06011C38.7928 4.31272 39.361 4.64897 40.0781 5.07652C41.59 5.96663 43.8152 7.27746 46.6136 9.01926C52.2204 12.4926 60.1013 17.724 68.7006 24.9046C73.0171 28.4838 77.5075 32.5417 82.217 36.9564C86.914 41.3796 91.8914 46.1271 96.8499 51.2527C101.81 56.3765 106.787 61.8716 111.274 67.8199C113.538 70.788 115.565 73.8961 117.638 77.0665C119.695 80.2352 121.784 83.4517 123.9 86.704C132.293 99.7373 139.705 112.346 145.069 124.141C150.463 135.927 153.767 146.868 155.325 156.154C156.917 165.445 157.436 168.353 157.015 173.571" fill="#263238"/>
<path fill-rule="evenodd" clip-rule="evenodd" d="M110.375 66.0618C110.436 66.0704 110.59 65.4747 110.819 64.3909C111.056 63.3105 111.33 61.7368 111.634 59.7893C112.246 55.8969 112.861 50.4974 113.508 44.5432C114.156 38.5847 114.864 33.2074 115.548 29.3329C115.886 27.3957 116.177 25.828 116.395 24.7475C116.608 23.6654 116.695 23.0604 116.633 23.0501C116.573 23.0399 116.37 23.6253 116.051 24.6921C115.724 25.7588 115.336 27.318 114.919 29.2535C114.068 33.1229 113.255 38.513 112.608 44.4775C111.987 50.3549 111.428 55.6716 110.997 59.7347C110.789 61.5695 110.613 63.1159 110.47 64.3559C110.35 65.4465 110.313 66.0542 110.375 66.0618Z" fill="#263238"/>
<path fill-rule="evenodd" clip-rule="evenodd" d="M37.2154 53.3149C37.2141 53.3644 38.2454 53.4343 40.1052 53.5197C41.9624 53.6135 44.652 53.7373 47.9685 53.9634C54.6041 54.3816 63.7378 55.1804 73.7637 56.3692C83.7872 57.5691 92.792 58.9243 99.2624 60.0337C102.506 60.5731 105.113 61.0578 106.92 61.3864C108.723 61.7192 109.73 61.8813 109.754 61.8327C109.774 61.7849 108.804 61.5323 107.031 61.115C105.257 60.7028 102.673 60.1421 99.4438 59.5362C92.9997 58.2953 83.9875 56.8565 73.9339 55.6515C63.8804 54.461 54.6955 53.7398 48.0248 53.4522C44.692 53.2901 41.9875 53.2432 40.1189 53.2389C38.2492 53.2397 37.2166 53.2645 37.2154 53.3149ZM144.452 117.756C144.488 117.767 144.648 117.553 144.932 117.139L146.12 115.309C147.138 113.716 148.53 111.385 150.192 108.49C153.526 102.7 157.767 94.601 162.275 85.6223C166.788 76.6385 170.916 68.5226 174.07 62.6938C175.617 59.8579 176.89 57.5281 177.837 55.7949L178.846 53.9139C179.065 53.4813 179.165 53.2491 179.134 53.2389C179.097 53.2304 178.935 53.442 178.653 53.8576L177.468 55.6865C176.447 57.2772 175.056 59.6104 173.392 62.5052C170.059 68.2939 165.819 76.3927 161.307 85.3765C156.798 94.3578 152.669 102.473 149.515 108.303C147.967 111.135 146.695 113.469 145.75 115.199C145.345 115.952 145.014 116.573 144.74 117.081C144.52 117.514 144.42 117.745 144.452 117.756Z" fill="#263238"/>
<path fill-rule="evenodd" clip-rule="evenodd" d="M47.2682 100.479C47.2594 100.504 47.5936 100.598 48.2406 100.755C49.004 100.93 49.9427 101.144 51.0803 101.406L61.5506 103.72C70.3914 105.677 82.5575 108.48 95.9951 111.589C109.438 114.702 121.654 117.427 130.55 119.25C135 120.163 138.61 120.876 141.116 121.332C142.279 121.537 143.234 121.705 144.011 121.844C144.675 121.952 145.029 121.997 145.037 121.97C145.047 121.945 144.712 121.851 144.066 121.694L141.228 121.044L130.759 118.731C121.918 116.774 109.749 113.97 96.308 110.859C82.8704 107.747 70.6567 105.023 61.7571 103.199C57.3092 102.285 53.6998 101.574 51.1892 101.117L48.2957 100.605C47.6324 100.498 47.2794 100.453 47.2682 100.479Z" fill="#263238"/>
</g>
<mask id="mask1_1_1670" style="mask-type:alpha" maskUnits="userSpaceOnUse" x="0" y="85" width="179" height="124">
<path d="M79.5759 85.3967L-8.94575e-05 131.96L98.9588 208.649L178.535 162.086L79.5759 85.3967Z" fill="white"/>
</mask>
<g mask="url(#mask1_1_1670)">
<path fill-rule="evenodd" clip-rule="evenodd" d="M161.644 167.735C163.688 151.24 146.419 135.467 127.75 123.509C124.636 121.514 121.717 119.15 117.861 118.188C114.005 117.229 109.397 117.963 108.424 120.418C107.613 122.452 109.418 124.803 110.54 127.009C112.032 129.943 112.344 133.021 111.429 135.773C110.83 137.581 109.46 139.393 106.828 139.794C103.217 140.345 99.3511 138.075 96.3529 136.02C90.7607 132.185 85.1705 128.355 79.5845 124.522C76.5854 122.467 73.5144 120.372 69.8761 118.98C66.237 117.588 61.8614 116.996 58.6776 118.128C55.4956 119.261 54.2067 122.457 56.654 124.813C57.6742 125.794 59.1548 126.513 60.3376 127.411C61.5195 128.308 62.42 129.588 61.7799 130.52C61.1366 131.464 59.2814 131.59 57.651 131.517C52.0255 131.273 46.3529 129.847 40.8189 128.357C35.2796 126.864 29.6991 125.276 24.038 124.675C18.3743 124.074 12.505 124.576 8.67824 126.933C4.85072 129.295 3.6981 133.791 7.0301 137.304C10.3737 140.828 16.7428 142.303 22.4224 143.06C30.8453 144.18 39.2905 144.474 47.4014 143.925C48.8645 143.827 50.4452 143.718 51.8658 144.265C54.4191 145.245 54.8353 147.712 53.8498 149.321C52.7325 151.144 50.4738 152.411 48.8033 153.974C47.1267 155.536 46.0524 157.728 47.5368 159.757C49.5939 162.569 54.9597 163.254 59.1806 163.205C67.6277 163.109 75.785 161.989 83.1828 159.908C85.8338 159.162 88.48 158.279 91.5222 158.289C94.5661 158.301 98.1702 159.507 99.3948 161.579C100.626 163.654 99.0051 165.738 96.6453 166.803C94.2874 167.871 91.3022 168.23 88.6298 168.96C83.6296 170.321 79.4754 173.644 80.8529 177.624C81.7598 180.242 84.9095 182.555 88.4472 183.942C91.9815 185.33 95.8839 185.922 99.6883 186.325C112.987 187.724 126.311 187.008 137.618 183.647C148.923 180.287 157.212 175.69 161.644 167.735Z" fill="#E8505B"/>
</g>
<mask id="mask2_1_1670" style="mask-type:alpha" maskUnits="userSpaceOnUse" x="0" y="85" width="179" height="124">
<path d="M79.5759 85.3967L-8.94575e-05 131.96L98.9588 208.649L178.535 162.086L79.5759 85.3967Z" fill="white"/>
</mask>
<g mask="url(#mask2_1_1670)">
<path fill-rule="evenodd" clip-rule="evenodd" d="M161.644 167.735C163.688 151.24 146.419 135.467 127.75 123.509C124.636 121.514 121.717 119.15 117.861 118.188C114.005 117.229 109.397 117.963 108.424 120.418C107.613 122.452 109.418 124.803 110.54 127.009C112.032 129.943 112.344 133.021 111.429 135.773C110.83 137.581 109.46 139.393 106.828 139.794C103.217 140.345 99.3511 138.075 96.3529 136.02C90.7607 132.185 85.1705 128.355 79.5845 124.522C76.5854 122.467 73.5144 120.372 69.8761 118.98C66.237 117.588 61.8614 116.996 58.6776 118.128C55.4956 119.261 54.2067 122.457 56.654 124.813C57.6742 125.794 59.1548 126.513 60.3376 127.411C61.5195 128.308 62.42 129.588 61.7799 130.52C61.1366 131.464 59.2814 131.59 57.651 131.517C52.0255 131.273 46.3529 129.847 40.8189 128.357C35.2796 126.864 29.6991 125.276 24.038 124.675C18.3743 124.074 12.505 124.576 8.67824 126.933C4.85072 129.295 3.6981 133.791 7.0301 137.304C10.3737 140.828 16.7428 142.303 22.4224 143.06C30.8453 144.18 39.2905 144.474 47.4014 143.925C48.8645 143.827 50.4452 143.718 51.8658 144.265C54.4191 145.245 54.8353 147.712 53.8498 149.321C52.7325 151.144 50.4738 152.411 48.8033 153.974C47.1267 155.536 46.0524 157.728 47.5368 159.757C49.5939 162.569 54.9597 163.254 59.1806 163.205C67.6277 163.109 75.785 161.989 83.1828 159.908C85.8338 159.162 88.48 158.279 91.5222 158.289C94.5661 158.301 98.1702 159.507 99.3948 161.579C100.626 163.654 99.0051 165.738 96.6453 166.803C94.2874 167.871 91.3022 168.23 88.6298 168.96C83.6296 170.321 79.4754 173.644 80.8529 177.624C81.7598 180.242 84.9095 182.555 88.4472 183.942C91.9815 185.33 95.8839 185.922 99.6883 186.325C112.987 187.724 126.311 187.008 137.618 183.647C148.923 180.287 157.212 175.69 161.644 167.735Z" fill="#F8CD99"/>
<mask id="mask3_1_1670" style="mask-type:alpha" maskUnits="userSpaceOnUse" x="4" y="95" width="190" height="136">
<path d="M67.5424 95.9342L4.60419 132.811L130.558 230.545L193.496 193.667L67.5424 95.9342Z" fill="white"/>
</mask>
<g mask="url(#mask3_1_1670)">
<path fill-rule="evenodd" clip-rule="evenodd" d="M4.60416 132.812C4.60872 132.821 4.78511 132.829 5.12305 132.837C5.50117 132.844 6.00069 132.85 6.6372 132.864C7.96555 132.882 9.92258 132.908 12.455 132.992C17.5145 133.151 24.8908 133.556 34.0442 134.775C38.6183 135.371 43.6295 136.169 49.0043 137.089C54.3784 138.018 60.1194 139.033 66.1385 140.253C72.1549 141.473 78.4575 142.88 84.8844 144.672C88.101 145.559 91.3211 146.59 94.6085 147.639C97.8899 148.694 101.217 149.764 104.583 150.844C118.039 155.199 130.746 159.623 141.947 164.228C153.152 168.818 162.813 173.586 170.464 178.005C178.136 182.415 183.799 186.433 187.531 189.303C189.389 190.744 190.805 191.879 191.728 192.668L192.801 193.554C193.046 193.753 193.177 193.852 193.185 193.849C193.193 193.844 193.084 193.736 192.854 193.528L191.835 192.616C190.943 191.808 189.557 190.654 187.721 189.192C184.04 186.284 178.404 182.214 170.741 177.755C163.098 173.291 153.422 168.473 142.196 163.848C130.976 159.21 118.244 154.762 104.777 150.405C101.409 149.322 98.0785 148.254 94.7954 147.201C91.5167 146.155 88.2656 145.117 85.0327 144.229C78.5638 142.434 72.2365 141.028 66.2032 139.818C60.1682 138.608 54.4173 137.604 49.0351 136.692C43.6515 135.79 38.6281 135.011 34.0407 134.431C24.8595 133.254 17.466 132.901 12.4125 132.801C9.8818 132.746 7.92821 132.749 6.61027 132.764L5.11047 132.788C4.7738 132.794 4.60217 132.802 4.60329 132.811" fill="#263238"/>
</g>
<path fill-rule="evenodd" clip-rule="evenodd" d="M87.4479 143.709C87.5077 143.678 87.1597 143.269 86.4773 142.554C85.8026 141.836 84.758 140.83 83.429 139.608C80.7859 137.161 76.9058 133.902 72.5958 130.324C68.2849 126.746 64.5073 123.444 61.946 120.962C60.6554 119.728 59.6308 118.718 58.9415 118.008C58.2453 117.304 57.8278 116.928 57.7618 116.958C57.7011 116.988 57.9934 117.42 58.5839 118.179C59.1656 118.941 60.0966 120.005 61.3076 121.287C63.7177 123.861 67.4127 127.23 71.7272 130.813C75.9959 134.33 79.8606 137.513 82.8114 139.947C84.1265 141.055 85.2403 141.987 86.1314 142.737C86.923 143.392 87.3872 143.742 87.4479 143.709ZM50.5916 161.49C50.6185 161.508 51.1141 161.237 51.9831 160.732C52.8557 160.232 54.1142 159.501 55.7074 158.629C58.8713 156.871 63.3571 154.532 68.446 152.082C73.5456 149.638 78.2761 147.546 81.7534 146.092C83.4869 145.356 84.9066 144.785 85.8869 144.387C86.87 143.992 87.4045 143.76 87.3888 143.736C87.3706 143.712 86.8013 143.898 85.7872 144.254C84.7749 144.611 83.3216 145.147 81.5581 145.853C78.0212 147.252 73.2397 149.315 68.1262 151.766C63.0217 154.223 58.5591 156.604 55.4506 158.423C53.8846 159.324 52.6605 160.086 51.8338 160.623C51.0081 161.163 50.5655 161.47 50.5916 161.49ZM145.581 161.836C145.605 161.83 145.517 161.666 145.333 161.36L144.49 160.025C143.749 158.867 142.62 157.204 141.187 155.158C138.325 151.064 134.13 145.469 129.388 139.324C124.645 133.177 120.386 127.607 117.412 123.549L113.906 118.734C113.524 118.211 113.205 117.782 112.946 117.426C112.716 117.129 112.589 116.977 112.565 116.98C112.542 116.987 112.629 117.15 112.815 117.457C113.04 117.817 113.32 118.257 113.655 118.79C114.395 119.949 115.526 121.611 116.958 123.658C119.821 127.752 124.014 133.348 128.759 139.495C133.498 145.639 137.758 151.208 140.734 155.269C142.173 157.247 143.36 158.872 144.237 160.081C144.623 160.604 144.939 161.035 145.201 161.389C145.431 161.686 145.559 161.84 145.582 161.835" fill="#263238"/>
<path fill-rule="evenodd" clip-rule="evenodd" d="M80.9265 179.995C80.9428 180.011 81.1753 179.952 81.6039 179.828L83.465 179.253C85.1671 178.713 87.4651 177.983 90.2577 177.093C95.9978 175.27 103.977 172.822 112.805 170.126C121.637 167.429 129.581 164.922 135.244 163.009C138.077 162.052 140.354 161.261 141.906 160.691C142.617 160.423 143.206 160.205 143.682 160.026C144.085 159.869 144.29 159.775 144.275 159.759C144.258 159.743 144.026 159.802 143.594 159.926C143.096 160.081 142.482 160.272 141.735 160.502L134.942 162.659C129.207 164.484 121.223 166.933 112.391 169.631C103.565 172.325 95.6208 174.832 89.9567 176.744C87.1224 177.701 84.8465 178.492 83.2949 179.062C82.5841 179.331 81.9956 179.549 81.5165 179.729C81.1158 179.886 80.9111 179.977 80.9265 179.995Z" fill="#263238"/>
</g>
<mask id="mask4_1_1670" style="mask-type:alpha" maskUnits="userSpaceOnUse" x="0" y="85" width="179" height="124">
<path d="M79.5759 85.3967L-2.84224e-05 131.96L98.9589 208.649L178.535 162.086L79.5759 85.3967Z" fill="white"/>
</mask>
<g mask="url(#mask4_1_1670)">
<path fill-rule="evenodd" clip-rule="evenodd" d="M161.644 167.735C163.688 151.24 146.419 135.467 127.75 123.509C124.636 121.514 121.717 119.15 117.862 118.188C114.005 117.229 109.397 117.963 108.424 120.418C107.613 122.452 109.418 124.803 110.54 127.009C112.032 129.943 112.344 133.021 111.429 135.773C110.83 137.581 109.46 139.393 106.828 139.794C103.217 140.345 99.3512 138.075 96.3529 136.02C90.7608 132.185 85.1705 128.355 79.5845 124.522C76.5854 122.467 73.5144 120.372 69.8762 118.98C66.237 117.588 61.8614 116.996 58.6776 118.128C55.4956 119.261 54.2068 122.457 56.654 124.813C57.6742 125.794 59.1548 126.513 60.3376 127.411C61.5196 128.308 62.42 129.588 61.7799 130.52C61.1367 131.464 59.2815 131.59 57.6511 131.517C52.0256 131.273 46.3529 129.847 40.8189 128.357C35.2796 126.864 29.6992 125.276 24.0381 124.675C18.3744 124.074 12.5051 124.576 8.67831 126.933C4.85079 129.295 3.69816 133.791 7.03016 137.304C10.3738 140.828 16.7429 142.303 22.4225 143.06C30.8453 144.18 39.2906 144.474 47.4015 143.925C48.8646 143.827 50.4453 143.718 51.8659 144.265C54.4192 145.245 54.8354 147.712 53.8499 149.321C52.7326 151.144 50.4738 152.411 48.8034 153.974C47.1268 155.536 46.0525 157.728 47.5369 159.757C49.594 162.569 54.9598 163.254 59.1806 163.205C67.6277 163.109 75.785 161.989 83.1829 159.908C85.8339 159.162 88.48 158.279 91.5222 158.289C94.5662 158.301 98.1703 159.507 99.3948 161.579C100.626 163.654 99.0052 165.738 96.6454 166.803C94.2875 167.871 91.3023 168.23 88.6298 168.96C83.6296 170.321 79.4754 173.644 80.853 177.624C81.7598 180.242 84.9096 182.555 88.4473 183.942C91.9816 185.33 95.8839 185.922 99.6883 186.325C112.987 187.724 126.311 187.008 137.618 183.647C148.923 180.287 157.212 175.69 161.644 167.735Z" fill="#E8505B"/>
</g>
<mask id="mask5_1_1670" style="mask-type:alpha" maskUnits="userSpaceOnUse" x="0" y="85" width="179" height="124">
<path d="M79.5759 85.3967L-2.84224e-05 131.96L98.9589 208.649L178.535 162.086L79.5759 85.3967Z" fill="white"/>
</mask>
<g mask="url(#mask5_1_1670)">
<path fill-rule="evenodd" clip-rule="evenodd" d="M161.644 167.735C163.688 151.24 146.419 135.467 127.75 123.509C124.636 121.514 121.717 119.15 117.862 118.188C114.005 117.229 109.397 117.963 108.424 120.418C107.613 122.452 109.418 124.803 110.54 127.009C112.032 129.943 112.344 133.021 111.429 135.773C110.83 137.581 109.46 139.393 106.828 139.794C103.217 140.345 99.3512 138.075 96.3529 136.02C90.7608 132.185 85.1705 128.355 79.5845 124.522C76.5854 122.467 73.5144 120.372 69.8762 118.98C66.237 117.588 61.8614 116.996 58.6776 118.128C55.4956 119.261 54.2068 122.457 56.654 124.813C57.6742 125.794 59.1548 126.513 60.3376 127.411C61.5196 128.308 62.42 129.588 61.7799 130.52C61.1367 131.464 59.2815 131.59 57.6511 131.517C52.0256 131.273 46.3529 129.847 40.8189 128.357C35.2796 126.864 29.6992 125.276 24.0381 124.675C18.3744 124.074 12.5051 124.576 8.67831 126.933C4.85079 129.295 3.69816 133.791 7.03016 137.304C10.3738 140.828 16.7429 142.303 22.4225 143.06C30.8453 144.18 39.2906 144.474 47.4015 143.925C48.8646 143.827 50.4453 143.718 51.8659 144.265C54.4192 145.245 54.8354 147.712 53.8499 149.321C52.7326 151.144 50.4738 152.411 48.8034 153.974C47.1268 155.536 46.0525 157.728 47.5369 159.757C49.594 162.569 54.9598 163.254 59.1806 163.205C67.6277 163.109 75.785 161.989 83.1829 159.908C85.8339 159.162 88.48 158.279 91.5222 158.289C94.5662 158.301 98.1703 159.507 99.3948 161.579C100.626 163.654 99.0052 165.738 96.6454 166.803C94.2875 167.871 91.3023 168.23 88.6298 168.96C83.6296 170.321 79.4754 173.644 80.853 177.624C81.7598 180.242 84.9096 182.555 88.4473 183.942C91.9816 185.33 95.8839 185.922 99.6883 186.325C112.987 187.724 126.311 187.008 137.618 183.647C148.923 180.287 157.212 175.69 161.644 167.735Z" fill="#F8CD99"/>
<mask id="mask6_1_1670" style="mask-type:alpha" maskUnits="userSpaceOnUse" x="4" y="95" width="190" height="136">
<path d="M67.5424 95.9342L4.60425 132.811L130.558 230.545L193.496 193.667L67.5424 95.9342Z" fill="white"/>
</mask>
<g mask="url(#mask6_1_1670)">
<path fill-rule="evenodd" clip-rule="evenodd" d="M4.60423 132.812C4.60878 132.821 4.78517 132.829 5.12311 132.837C5.50123 132.844 6.00075 132.85 6.63727 132.864C7.96561 132.882 9.92264 132.908 12.4551 132.992C17.5146 133.151 24.8908 133.556 34.0442 134.775C38.6184 135.371 43.6296 136.169 49.0043 137.089C54.3785 138.018 60.1195 139.033 66.1385 140.253C72.155 141.473 78.4575 142.88 84.8845 144.672C88.1011 145.559 91.3212 146.59 94.6085 147.639C97.89 148.694 101.217 149.764 104.583 150.844C118.039 155.199 130.746 159.623 141.947 164.228C153.152 168.818 162.813 173.586 170.464 178.005C178.136 182.415 183.799 186.433 187.531 189.303C189.389 190.744 190.805 191.879 191.728 192.668L192.801 193.554C193.046 193.753 193.177 193.852 193.185 193.849C193.193 193.844 193.084 193.736 192.854 193.528L191.835 192.616C190.943 191.808 189.557 190.654 187.721 189.192C184.04 186.284 178.404 182.214 170.741 177.755C163.098 173.291 153.422 168.473 142.196 163.848C130.976 159.21 118.244 154.762 104.777 150.405C101.409 149.322 98.0786 148.254 94.7954 147.201C91.5167 146.155 88.2657 145.117 85.0328 144.229C78.5638 142.434 72.2366 141.028 66.2033 139.818C60.1683 138.608 54.4174 137.604 49.0352 136.692C43.6515 135.79 38.6281 135.011 34.0408 134.431C24.8595 133.254 17.466 132.901 12.4126 132.801C9.88186 132.746 7.92828 132.749 6.61033 132.764L5.11053 132.788C4.77386 132.794 4.60223 132.802 4.60335 132.811" fill="#263238"/>
</g>
<path fill-rule="evenodd" clip-rule="evenodd" d="M87.448 143.709C87.5078 143.678 87.1598 143.269 86.4773 142.554C85.8027 141.836 84.7581 140.83 83.4291 139.608C80.786 137.161 76.9059 133.902 72.5958 130.324C68.2849 126.746 64.5074 123.444 61.946 120.962C60.6554 119.728 59.6309 118.718 58.9415 118.008C58.2453 117.304 57.8279 116.928 57.7619 116.958C57.7011 116.988 57.9935 117.42 58.5839 118.179C59.1656 118.941 60.0967 120.005 61.3077 121.287C63.7177 123.861 67.4127 127.23 71.7273 130.813C75.9959 134.33 79.8607 137.513 82.8114 139.947C84.1265 141.055 85.2403 141.987 86.1315 142.737C86.9231 143.392 87.3873 143.742 87.448 143.709ZM50.5917 161.49C50.6186 161.508 51.1142 161.237 51.9831 160.732C52.8558 160.232 54.1142 159.501 55.7074 158.629C58.8714 156.871 63.3571 154.532 68.446 152.082C73.5457 149.638 78.2762 147.546 81.7534 146.092C83.487 145.356 84.9067 144.785 85.887 144.387C86.87 143.992 87.4045 143.76 87.3889 143.736C87.3706 143.712 86.8013 143.898 85.7872 144.254C84.775 144.611 83.3216 145.147 81.5582 145.853C78.0212 147.252 73.2397 149.315 68.1262 151.766C63.0217 154.223 58.5592 156.604 55.4507 158.423C53.8847 159.324 52.6606 160.086 51.8339 160.623C51.0082 161.163 50.5656 161.47 50.5917 161.49ZM145.581 161.836C145.605 161.83 145.517 161.666 145.333 161.36L144.491 160.025C143.749 158.867 142.62 157.204 141.187 155.158C138.325 151.064 134.13 145.469 129.388 139.324C124.645 133.177 120.386 127.607 117.412 123.549L113.906 118.734C113.524 118.211 113.205 117.782 112.946 117.426C112.716 117.129 112.589 116.977 112.565 116.98C112.542 116.987 112.629 117.15 112.815 117.457C113.04 117.817 113.32 118.257 113.655 118.79C114.396 119.949 115.526 121.611 116.958 123.658C119.821 127.752 124.014 133.348 128.759 139.495C133.498 145.639 137.759 151.208 140.734 155.269C142.173 157.247 143.36 158.872 144.237 160.081C144.623 160.604 144.939 161.035 145.201 161.389C145.431 161.686 145.559 161.84 145.582 161.835" fill="#263238"/>
<path fill-rule="evenodd" clip-rule="evenodd" d="M80.9265 179.995C80.9428 180.011 81.1754 179.952 81.604 179.828L83.465 179.253C85.1671 178.713 87.4652 177.983 90.2578 177.093C95.9979 175.27 103.977 172.822 112.805 170.126C121.637 167.429 129.581 164.922 135.244 163.009C138.077 162.052 140.354 161.261 141.906 160.691C142.617 160.423 143.206 160.205 143.682 160.026C144.085 159.869 144.29 159.775 144.275 159.759C144.258 159.743 144.026 159.802 143.594 159.926C143.096 160.081 142.482 160.272 141.735 160.502L134.942 162.659C129.207 164.484 121.223 166.933 112.391 169.631C103.565 172.325 95.6208 174.832 89.9568 176.744C87.1224 177.701 84.8466 178.492 83.295 179.062C82.5842 179.331 81.9956 179.549 81.5165 179.729C81.1158 179.886 80.9111 179.977 80.9265 179.995Z" fill="#263238"/>
</g>
<mask id="mask7_1_1670" style="mask-type:alpha" maskUnits="userSpaceOnUse" x="0" y="85" width="179" height="124">
<path d="M79.5759 85.3967L-2.84224e-05 131.96L98.9589 208.649L178.535 162.086L79.5759 85.3967Z" fill="white"/>
</mask>
<g mask="url(#mask7_1_1670)">
<path fill-rule="evenodd" clip-rule="evenodd" d="M161.644 167.735C163.688 151.24 146.419 135.467 127.75 123.509C124.636 121.514 121.717 119.15 117.862 118.188C114.005 117.229 109.397 117.963 108.424 120.418C107.613 122.452 109.418 124.803 110.54 127.009C112.032 129.943 112.344 133.021 111.429 135.773C110.83 137.581 109.46 139.393 106.828 139.794C103.217 140.345 99.3512 138.075 96.3529 136.02C90.7608 132.185 85.1705 128.355 79.5845 124.522C76.5854 122.467 73.5144 120.372 69.8762 118.98C66.237 117.588 61.8614 116.996 58.6776 118.128C55.4956 119.261 54.2068 122.457 56.654 124.813C57.6742 125.794 59.1548 126.513 60.3376 127.411C61.5196 128.308 62.42 129.588 61.7799 130.52C61.1367 131.464 59.2815 131.59 57.6511 131.517C52.0256 131.273 46.3529 129.847 40.8189 128.357C35.2796 126.864 29.6992 125.276 24.0381 124.675C18.3744 124.074 12.5051 124.576 8.67831 126.933C4.85079 129.295 3.69816 133.791 7.03016 137.304C10.3738 140.828 16.7429 142.303 22.4225 143.06C30.8453 144.18 39.2906 144.474 47.4015 143.925C48.8646 143.827 50.4453 143.718 51.8659 144.265C54.4192 145.245 54.8354 147.712 53.8499 149.321C52.7326 151.144 50.4738 152.411 48.8034 153.974C47.1268 155.536 46.0525 157.728 47.5369 159.757C49.594 162.569 54.9598 163.254 59.1806 163.205C67.6277 163.109 75.785 161.989 83.1829 159.908C85.8339 159.162 88.48 158.279 91.5222 158.289C94.5662 158.301 98.1703 159.507 99.3948 161.579C100.626 163.654 99.0052 165.738 96.6454 166.803C94.2875 167.871 91.3023 168.23 88.6298 168.96C83.6296 170.321 79.4754 173.644 80.853 177.624C81.7598 180.242 84.9096 182.555 88.4473 183.942C91.9816 185.33 95.8839 185.922 99.6883 186.325C112.987 187.724 126.311 187.008 137.618 183.647C148.923 180.287 157.212 175.69 161.644 167.735Z" fill="#E8505B"/>
</g>
<mask id="mask8_1_1670" style="mask-type:alpha" maskUnits="userSpaceOnUse" x="0" y="85" width="179" height="124">
<path d="M79.5759 85.3967L-2.84224e-05 131.96L98.9589 208.649L178.535 162.086L79.5759 85.3967Z" fill="white"/>
</mask>
<g mask="url(#mask8_1_1670)">
<path fill-rule="evenodd" clip-rule="evenodd" d="M161.644 167.735C163.688 151.24 146.419 135.467 127.75 123.509C124.636 121.514 121.717 119.15 117.862 118.188C114.005 117.229 109.397 117.963 108.424 120.418C107.613 122.452 109.418 124.803 110.54 127.009C112.032 129.943 112.344 133.021 111.429 135.773C110.83 137.581 109.46 139.393 106.828 139.794C103.217 140.345 99.3512 138.075 96.3529 136.02C90.7608 132.185 85.1705 128.355 79.5845 124.522C76.5854 122.467 73.5144 120.372 69.8762 118.98C66.237 117.588 61.8614 116.996 58.6776 118.128C55.4956 119.261 54.2068 122.457 56.654 124.813C57.6742 125.794 59.1548 126.513 60.3376 127.411C61.5196 128.308 62.42 129.588 61.7799 130.52C61.1367 131.464 59.2815 131.59 57.6511 131.517C52.0256 131.273 46.3529 129.847 40.8189 128.357C35.2796 126.864 29.6992 125.276 24.0381 124.675C18.3744 124.074 12.5051 124.576 8.67831 126.933C4.85079 129.295 3.69816 133.791 7.03016 137.304C10.3738 140.828 16.7429 142.303 22.4225 143.06C30.8453 144.18 39.2906 144.474 47.4015 143.925C48.8646 143.827 50.4453 143.718 51.8659 144.265C54.4192 145.245 54.8354 147.712 53.8499 149.321C52.7326 151.144 50.4738 152.411 48.8034 153.974C47.1268 155.536 46.0525 157.728 47.5369 159.757C49.594 162.569 54.9598 163.254 59.1806 163.205C67.6277 163.109 75.785 161.989 83.1829 159.908C85.8339 159.162 88.48 158.279 91.5222 158.289C94.5662 158.301 98.1703 159.507 99.3948 161.579C100.626 163.654 99.0052 165.738 96.6454 166.803C94.2875 167.871 91.3023 168.23 88.6298 168.96C83.6296 170.321 79.4754 173.644 80.853 177.624C81.7598 180.242 84.9096 182.555 88.4473 183.942C91.9816 185.33 95.8839 185.922 99.6883 186.325C112.987 187.724 126.311 187.008 137.618 183.647C148.923 180.287 157.212 175.69 161.644 167.735Z" fill="#F8CD99"/>
<mask id="mask9_1_1670" style="mask-type:alpha" maskUnits="userSpaceOnUse" x="4" y="95" width="190" height="136">
<path d="M67.5424 95.9342L4.60425 132.811L130.558 230.545L193.496 193.667L67.5424 95.9342Z" fill="white"/>
</mask>
<g mask="url(#mask9_1_1670)">
<path fill-rule="evenodd" clip-rule="evenodd" d="M4.60423 132.812C4.60878 132.821 4.78517 132.829 5.12311 132.837C5.50123 132.844 6.00075 132.85 6.63727 132.864C7.96561 132.882 9.92264 132.908 12.4551 132.992C17.5146 133.151 24.8908 133.556 34.0442 134.775C38.6184 135.371 43.6296 136.169 49.0043 137.089C54.3785 138.018 60.1195 139.033 66.1385 140.253C72.155 141.473 78.4575 142.88 84.8845 144.672C88.1011 145.559 91.3212 146.59 94.6085 147.639C97.89 148.694 101.217 149.764 104.583 150.844C118.039 155.199 130.746 159.623 141.947 164.228C153.152 168.818 162.813 173.586 170.464 178.005C178.136 182.415 183.799 186.433 187.531 189.303C189.389 190.744 190.805 191.879 191.728 192.668L192.801 193.554C193.046 193.753 193.177 193.852 193.185 193.849C193.193 193.844 193.084 193.736 192.854 193.528L191.835 192.616C190.943 191.808 189.557 190.654 187.721 189.192C184.04 186.284 178.404 182.214 170.741 177.755C163.098 173.291 153.422 168.473 142.196 163.848C130.976 159.21 118.244 154.762 104.777 150.405C101.409 149.322 98.0786 148.254 94.7954 147.201C91.5167 146.155 88.2657 145.117 85.0328 144.229C78.5638 142.434 72.2366 141.028 66.2033 139.818C60.1683 138.608 54.4174 137.604 49.0352 136.692C43.6515 135.79 38.6281 135.011 34.0408 134.431C24.8595 133.254 17.466 132.901 12.4126 132.801C9.88186 132.746 7.92828 132.749 6.61033 132.764L5.11053 132.788C4.77386 132.794 4.60223 132.802 4.60335 132.811" fill="#263238"/>
</g>
<path fill-rule="evenodd" clip-rule="evenodd" d="M87.448 143.709C87.5078 143.678 87.1598 143.269 86.4773 142.554C85.8027 141.836 84.7581 140.83 83.4291 139.608C80.786 137.161 76.9059 133.902 72.5958 130.324C68.2849 126.746 64.5074 123.444 61.946 120.962C60.6554 119.728 59.6309 118.718 58.9415 118.008C58.2453 117.304 57.8279 116.928 57.7619 116.958C57.7011 116.988 57.9935 117.42 58.5839 118.179C59.1656 118.941 60.0967 120.005 61.3077 121.287C63.7177 123.861 67.4127 127.23 71.7273 130.813C75.9959 134.33 79.8607 137.513 82.8114 139.947C84.1265 141.055 85.2403 141.987 86.1315 142.737C86.9231 143.392 87.3873 143.742 87.448 143.709ZM50.5917 161.49C50.6186 161.508 51.1142 161.237 51.9831 160.732C52.8558 160.232 54.1142 159.501 55.7074 158.629C58.8714 156.871 63.3571 154.532 68.446 152.082C73.5457 149.638 78.2762 147.546 81.7534 146.092C83.487 145.356 84.9067 144.785 85.887 144.387C86.87 143.992 87.4045 143.76 87.3889 143.736C87.3706 143.712 86.8013 143.898 85.7872 144.254C84.775 144.611 83.3216 145.147 81.5582 145.853C78.0212 147.252 73.2397 149.315 68.1262 151.766C63.0217 154.223 58.5592 156.604 55.4507 158.423C53.8847 159.324 52.6606 160.086 51.8339 160.623C51.0082 161.163 50.5656 161.47 50.5917 161.49ZM145.581 161.836C145.605 161.83 145.517 161.666 145.333 161.36L144.491 160.025C143.749 158.867 142.62 157.204 141.187 155.158C138.325 151.064 134.13 145.469 129.388 139.324C124.645 133.177 120.386 127.607 117.412 123.549L113.906 118.734C113.524 118.211 113.205 117.782 112.946 117.426C112.716 117.129 112.589 116.977 112.565 116.98C112.542 116.987 112.629 117.15 112.815 117.457C113.04 117.817 113.32 118.257 113.655 118.79C114.396 119.949 115.526 121.611 116.958 123.658C119.821 127.752 124.014 133.348 128.759 139.495C133.498 145.639 137.759 151.208 140.734 155.269C142.173 157.247 143.36 158.872 144.237 160.081C144.623 160.604 144.939 161.035 145.201 161.389C145.431 161.686 145.559 161.84 145.582 161.835" fill="#263238"/>
<path fill-rule="evenodd" clip-rule="evenodd" d="M80.9265 179.995C80.9428 180.011 81.1754 179.952 81.604 179.828L83.465 179.253C85.1671 178.713 87.4652 177.983 90.2578 177.093C95.9979 175.27 103.977 172.822 112.805 170.126C121.637 167.429 129.581 164.922 135.244 163.009C138.077 162.052 140.354 161.261 141.906 160.691C142.617 160.423 143.206 160.205 143.682 160.026C144.085 159.869 144.29 159.775 144.275 159.759C144.258 159.743 144.026 159.802 143.594 159.926C143.096 160.081 142.482 160.272 141.735 160.502L134.942 162.659C129.207 164.484 121.223 166.933 112.391 169.631C103.565 172.325 95.6208 174.832 89.9568 176.744C87.1224 177.701 84.8466 178.492 83.295 179.062C82.5842 179.331 81.9956 179.549 81.5165 179.729C81.1158 179.886 80.9111 179.977 80.9265 179.995Z" fill="#263238"/>
</g>
</svg>
