<svg width="156" height="253" viewBox="0 0 156 253" fill="none" xmlns="http://www.w3.org/2000/svg">
<mask id="mask0_1_6" style="mask-type:alpha" maskUnits="userSpaceOnUse" x="29" y="0" width="161" height="195">
<path d="M29.1315 0H189.047V194.789H29.1315V0Z" fill="white"/>
</mask>
<g mask="url(#mask0_1_6)">
<path fill-rule="evenodd" clip-rule="evenodd" d="M155.408 190.425C184.493 170.495 190.519 134.274 188.77 101.831C188.478 96.414 189.005 90.6941 186.195 85.9812C183.383 81.273 176.968 78.1259 171.882 80.4918C167.663 82.4559 165.893 87.1653 163.583 91.0747C160.512 96.2769 155.871 100.615 150.368 103.429C146.754 105.279 142.262 106.446 138.626 104.625C133.641 102.127 132.944 95.6801 132.882 90.2876C132.765 80.2424 132.65 70.1973 132.537 60.1521C132.475 54.7632 132.394 49.2608 130.529 44.1744C128.665 39.0868 124.664 34.4011 119.219 33.0515C113.775 31.7019 107.128 34.7651 106.078 40.0594C105.641 42.2623 106.155 44.5337 106.036 46.7732C105.919 49.0126 104.862 51.505 102.627 52.1645C100.363 52.8333 98.0579 51.3431 96.3258 49.7914C90.3485 44.4462 86.2322 37.5009 82.3788 30.5898C78.5241 23.6788 74.7757 16.6011 69.3329 10.75C63.8937 4.90258 56.4296 0.318446 48.2621 0.0123645C40.0959 -0.291354 31.4892 4.61068 29.5656 12.2202C27.6345 19.8533 32.4566 27.4853 37.668 33.5537C45.3961 42.5566 54.4897 50.4828 64.572 57.0003C66.3893 58.1785 68.3604 59.449 69.0838 61.4344C70.3841 65.0081 66.8498 68.6338 63.1228 69.8747C58.8989 71.2822 54.287 70.9383 49.8528 71.5055C45.4187 72.0728 40.6416 74.0038 39.0321 78.0018C36.7994 83.5479 41.7717 89.2429 46.6302 92.9478C56.3633 100.366 67.4268 106.171 79.1874 110.032C83.4025 111.416 87.8354 112.617 91.2646 115.35C94.6951 118.08 96.8214 122.889 94.8477 126.718C92.8741 130.553 87.6552 131.851 83.2536 131.15C78.852 130.452 74.8796 128.261 70.6707 126.837C62.7924 124.166 52.6913 124.839 47.7928 131.321C44.5726 135.581 44.3874 141.446 46.1446 146.433C47.9005 151.422 51.3584 155.686 55.0216 159.615C67.821 173.339 84.0846 184.29 102.352 189.953C120.617 195.618 137.474 196.96 155.408 190.425Z" fill="#F3AF47"/>
<path fill-rule="evenodd" clip-rule="evenodd" d="M158.206 239.662C158.752 232.427 158.346 228.359 156.843 215.437C155.374 202.52 152.129 187.29 146.768 170.906C141.439 154.509 134.038 136.995 125.638 118.931C123.519 114.425 121.429 109.97 119.366 105.579C117.296 101.202 115.244 96.8601 112.962 92.7321C108.437 84.4561 103.426 76.8289 98.4294 69.7311C93.4371 62.6274 88.4272 56.0578 83.6964 49.9516C78.9494 43.8524 74.4126 38.246 70.051 33.305C61.3529 23.3874 53.3632 16.1951 47.6637 11.4715C44.8203 9.10086 42.5525 7.33055 40.9956 6.15113L39.2197 4.81808C38.8154 4.52263 38.6039 4.37846 38.5914 4.39145C38.5789 4.40682 38.7691 4.57699 39.1533 4.89844C39.5776 5.24825 40.1458 5.71387 40.8629 6.30594C42.3748 7.53854 44.6 9.35376 47.3984 11.7658C53.0052 16.5756 60.8861 23.82 69.4853 33.7635C73.8019 38.7199 78.2923 44.3393 83.0018 50.4526C87.6988 56.5778 92.6761 63.1521 97.6347 70.2499C102.594 77.3453 107.572 84.9548 112.059 93.1918C114.323 97.3021 116.35 101.606 118.423 105.996C120.48 110.384 122.569 114.839 124.685 119.342C133.078 137.391 140.489 154.85 145.854 171.185C151.248 187.505 154.552 202.656 156.11 215.516C157.702 228.382 158.221 232.408 157.799 239.634" fill="#263238"/>
<path fill-rule="evenodd" clip-rule="evenodd" d="M111.16 90.7574C111.221 90.7692 111.375 89.9443 111.604 88.4435C111.841 86.9473 112.115 84.7681 112.419 82.0713C113.031 76.6812 113.645 69.204 114.293 60.9587C114.941 52.7075 115.649 45.2611 116.333 39.8958C116.67 37.2132 116.962 35.0422 117.18 33.5461C117.393 32.0476 117.48 31.2097 117.418 31.1955C117.358 31.1813 117.155 31.992 116.836 33.4693C116.509 34.9465 116.121 37.1056 115.704 39.7859C114.853 45.1441 114.04 52.6083 113.393 60.8677C112.772 69.0067 112.212 76.3692 111.782 81.9957C111.574 84.5365 111.398 86.6779 111.255 88.395C111.135 89.9053 111.097 90.7468 111.16 90.7574Z" fill="#263238"/>
<path fill-rule="evenodd" clip-rule="evenodd" d="M38.5913 78.9496C38.5901 79.0181 39.6213 79.115 41.4811 79.2332C43.3384 79.3632 46.0279 79.5346 49.3444 79.8477C55.98 80.4268 65.1137 81.533 75.1397 83.1792C85.1631 84.8408 94.1679 86.7174 100.638 88.2538C103.882 89.0006 106.489 89.6719 108.296 90.1269C110.099 90.5878 111.106 90.8123 111.13 90.745C111.15 90.6788 110.18 90.329 108.407 89.7511C106.633 89.1803 104.049 88.4038 100.82 87.5648C94.3756 85.8465 85.3634 83.854 75.3099 82.1853C65.2563 80.5367 56.0714 79.5381 49.4007 79.1398C46.0679 78.9153 43.3634 78.8503 41.4949 78.8444C39.6251 78.8456 38.5926 78.8799 38.5913 78.9496ZM145.828 168.187C145.863 168.201 146.024 167.905 146.308 167.332L147.495 164.798C148.514 162.591 149.906 159.364 151.568 155.355C154.902 147.337 159.143 136.122 163.651 123.688C168.164 111.248 172.292 100.009 175.446 91.9374C176.993 88.0103 178.265 84.784 179.213 82.3838L180.222 79.7792C180.441 79.18 180.541 78.8586 180.509 78.8444C180.473 78.8326 180.31 79.1257 180.029 79.7012L178.844 82.2338C177.822 84.4366 176.432 87.6676 174.767 91.6762C171.435 99.6922 167.194 110.907 162.683 123.348C158.173 135.785 154.045 147.023 150.891 155.097C149.343 159.018 148.071 162.25 147.126 164.645C146.721 165.688 146.39 166.548 146.116 167.252C145.896 167.852 145.796 168.172 145.828 168.187Z" fill="#263238"/>
<path fill-rule="evenodd" clip-rule="evenodd" d="M48.053 138.417C48.0442 138.453 48.3784 138.583 49.0254 138.8C49.7888 139.042 50.7275 139.339 51.8651 139.702L62.3354 142.906C71.1762 145.616 83.3423 149.498 96.7799 153.803C110.223 158.114 122.439 161.886 131.335 164.412C135.785 165.676 139.394 166.663 141.901 167.294C143.064 167.578 144.019 167.811 144.796 168.003C145.459 168.153 145.813 168.216 145.822 168.178C145.832 168.143 145.497 168.014 144.851 167.795L142.013 166.896L131.544 163.692C122.703 160.982 110.534 157.1 97.0928 152.791C83.6552 148.483 71.4415 144.71 62.5419 142.185C58.094 140.919 54.4846 139.934 51.974 139.301L49.0805 138.592C48.4172 138.443 48.0642 138.382 48.053 138.417Z" fill="#263238"/>
</g>
<mask id="mask1_1_6" style="mask-type:alpha" maskUnits="userSpaceOnUse" x="0" y="117" width="180" height="172">
<path d="M82.2573 117.532L0.784677 183.775L97.8469 288.21L179.32 221.967L82.2573 117.532Z" fill="white"/>
</mask>
<g mask="url(#mask1_1_6)">
<path fill-rule="evenodd" clip-rule="evenodd" d="M162.161 230.162C164.732 207.228 147.866 185.683 129.474 169.462C126.406 166.756 123.545 163.534 119.7 162.276C115.853 161.023 111.198 162.133 110.143 165.56C109.264 168.4 111.004 171.626 112.063 174.666C113.471 178.708 113.689 182.974 112.683 186.811C112.024 189.333 110.59 191.876 107.932 192.485C104.285 193.322 100.469 190.249 97.5194 187.457C92.0179 182.248 86.5181 177.043 81.0227 171.836C78.0722 169.044 75.0506 166.198 71.4368 164.34C67.822 162.48 63.4419 161.747 60.2059 163.382C56.9717 165.018 55.576 169.48 57.9624 172.701C58.9572 174.042 60.4231 175.01 61.584 176.233C62.7441 177.454 63.6092 179.212 62.9366 180.519C62.2604 181.842 60.3915 182.054 58.7547 181.986C53.1073 181.76 47.4494 179.895 41.9329 177.937C36.4112 175.977 30.851 173.886 25.179 173.165C19.5043 172.444 13.5883 173.259 9.66762 176.608C5.74601 179.962 4.44653 186.226 7.68608 191.035C10.937 195.858 17.2935 197.777 22.9792 198.714C31.4114 200.1 39.8919 200.338 48.0627 199.413C49.5366 199.247 51.129 199.065 52.54 199.794C55.076 201.104 55.4172 204.519 54.3761 206.773C53.1959 209.324 50.8856 211.129 49.1574 213.332C47.423 215.533 46.2744 218.597 47.7031 221.383C49.683 225.245 55.0556 226.087 59.3003 225.935C67.7948 225.632 76.0301 223.914 83.5321 220.876C86.2204 219.787 88.9082 218.509 91.966 218.462C95.0257 218.417 98.611 220.019 99.7771 222.869C100.949 225.725 99.2552 228.65 96.8496 230.176C94.4459 231.705 91.4337 232.264 88.7243 233.33C83.6552 235.32 79.3751 240.015 80.6352 245.512C81.4649 249.128 84.5588 252.274 88.0718 254.128C91.5812 255.984 95.4856 256.727 99.2974 257.209C112.622 258.884 126.039 257.623 137.51 252.731C148.981 247.84 157.457 241.293 162.161 230.162Z" fill="#E8505B"/>
</g>
<mask id="mask2_1_6" style="mask-type:alpha" maskUnits="userSpaceOnUse" x="0" y="117" width="180" height="172">
<path d="M82.2573 117.532L0.784677 183.775L97.8469 288.21L179.32 221.967L82.2573 117.532Z" fill="white"/>
</mask>
<g mask="url(#mask2_1_6)">
<path fill-rule="evenodd" clip-rule="evenodd" d="M162.161 230.162C164.732 207.228 147.866 185.683 129.474 169.462C126.406 166.756 123.545 163.534 119.7 162.276C115.853 161.023 111.198 162.133 110.143 165.56C109.264 168.4 111.004 171.626 112.063 174.666C113.471 178.708 113.689 182.974 112.683 186.811C112.024 189.333 110.59 191.876 107.932 192.485C104.285 193.322 100.469 190.249 97.5194 187.457C92.0179 182.248 86.5181 177.043 81.0227 171.836C78.0722 169.044 75.0506 166.198 71.4368 164.34C67.822 162.48 63.4419 161.747 60.2059 163.382C56.9717 165.018 55.576 169.48 57.9624 172.701C58.9572 174.042 60.4231 175.01 61.584 176.233C62.7441 177.454 63.6092 179.212 62.9366 180.519C62.2604 181.842 60.3915 182.054 58.7547 181.986C53.1073 181.76 47.4494 179.895 41.9329 177.937C36.4112 175.977 30.851 173.886 25.179 173.165C19.5043 172.444 13.5883 173.259 9.66762 176.608C5.74601 179.962 4.44653 186.226 7.68608 191.035C10.937 195.858 17.2935 197.777 22.9792 198.714C31.4114 200.1 39.8919 200.338 48.0627 199.413C49.5366 199.247 51.129 199.065 52.54 199.794C55.076 201.104 55.4172 204.519 54.3761 206.773C53.1959 209.324 50.8856 211.129 49.1574 213.332C47.423 215.533 46.2744 218.597 47.7031 221.383C49.683 225.245 55.0556 226.087 59.3003 225.935C67.7948 225.632 76.0301 223.914 83.5321 220.876C86.2204 219.787 88.9082 218.509 91.966 218.462C95.0257 218.417 98.611 220.019 99.7771 222.869C100.949 225.725 99.2552 228.65 96.8496 230.176C94.4459 231.705 91.4337 232.264 88.7243 233.33C83.6552 235.32 79.3751 240.015 80.6352 245.512C81.4649 249.128 84.5588 252.274 88.0718 254.128C91.5812 255.984 95.4856 256.727 99.2974 257.209C112.622 258.884 126.039 257.623 137.51 252.731C148.981 247.84 157.457 241.293 162.161 230.162Z" fill="#F8CD99"/>
<mask id="mask3_1_6" style="mask-type:alpha" maskUnits="userSpaceOnUse" x="5" y="132" width="190" height="187">
<path d="M70.1407 132.124L5.38884 184.825L129.529 318.531L194.281 265.829L70.1407 132.124Z" fill="white"/>
</mask>
<g mask="url(#mask3_1_6)">
<path fill-rule="evenodd" clip-rule="evenodd" d="M5.38896 184.825C5.39327 184.838 5.57119 184.847 5.91235 184.849C6.29411 184.852 6.79853 184.851 7.44113 184.857C8.78248 184.855 10.7587 184.852 13.3143 184.917C18.4205 185.036 25.8593 185.45 35.0676 186.963C39.6697 187.701 44.7067 188.711 50.1072 189.885C55.5069 191.07 61.2743 192.369 67.3162 193.948C73.3555 195.526 79.6778 197.359 86.1136 199.727C89.3349 200.899 92.5552 202.27 95.8429 203.666C99.1244 205.069 102.452 206.494 105.818 207.931C119.273 213.73 131.97 219.639 143.139 225.831C154.313 232.004 163.922 238.454 171.51 244.46C179.121 250.453 184.715 255.941 188.394 259.865C190.224 261.837 191.619 263.391 192.526 264.472L193.582 265.686C193.824 265.957 193.953 266.094 193.961 266.089C193.97 266.082 193.863 265.934 193.637 265.648L192.636 264.397C191.76 263.289 190.397 261.708 188.589 259.706C184.963 255.727 179.398 250.167 171.798 244.107C164.218 238.038 154.597 231.517 143.403 225.297C132.215 219.058 119.494 213.116 106.028 207.315C102.66 205.874 99.3289 204.453 96.0456 203.051C92.7666 201.659 89.5152 200.279 86.2774 199.106C79.7993 196.735 73.452 194.904 67.3954 193.34C61.3371 191.776 55.5593 190.492 50.151 189.331C44.7409 188.182 39.6909 187.199 35.075 186.484C25.8373 185.029 18.3794 184.687 13.2775 184.652C10.7226 184.626 8.74898 184.67 7.41708 184.718L5.90119 184.782C5.56086 184.798 5.38724 184.812 5.3881 184.824" fill="#263238"/>
</g>
<path fill-rule="evenodd" clip-rule="evenodd" d="M88.2953 198.338C88.3562 198.295 88.0199 197.734 87.3574 196.758C86.703 195.776 85.6862 194.404 84.3909 192.738C81.8154 189.4 78.0239 184.964 73.8112 180.094C69.5975 175.223 65.9103 170.725 63.4179 167.338C62.1615 165.654 61.165 164.274 60.4955 163.305C59.819 162.344 59.4118 161.832 59.3447 161.875C59.2828 161.917 59.5626 162.51 60.1313 163.55C60.6912 164.593 61.5922 166.048 62.7672 167.8C65.105 171.318 68.7072 175.912 72.9244 180.788C77.0976 185.575 80.8759 189.908 83.7606 193.22C85.0455 194.728 86.134 195.998 87.0047 197.018C87.7785 197.911 88.2334 198.385 88.2953 198.338ZM50.7585 223.711C50.785 223.735 51.2907 223.35 52.1784 222.634C53.0696 221.922 54.3551 220.886 55.981 219.645C59.2106 217.146 63.7847 213.815 68.9673 210.319C74.1606 206.831 78.9725 203.838 82.507 201.754C84.2694 200.7 85.7117 199.881 86.7078 199.309C87.7065 198.742 88.2501 198.41 88.2351 198.377C88.2175 198.345 87.6405 198.614 86.6119 199.127C85.585 199.642 84.11 200.414 82.3185 201.427C78.7259 203.436 73.8637 206.39 68.6563 209.888C63.4577 213.395 58.9057 216.783 55.7298 219.365C54.1304 220.644 52.8783 221.725 52.032 222.485C51.1866 223.25 50.733 223.684 50.7585 223.711ZM146.059 222.284C146.083 222.277 146 222.051 145.824 221.631L145.021 219.798C144.314 218.209 143.232 215.928 141.858 213.122C139.114 207.507 135.08 199.84 130.514 191.422C125.947 183.002 121.848 175.371 118.991 169.808L115.624 163.209C115.257 162.491 114.949 161.904 114.701 161.416C114.479 161.009 114.357 160.8 114.332 160.805C114.309 160.816 114.392 161.04 114.569 161.461C114.783 161.955 115.05 162.56 115.37 163.292C116.077 164.882 117.159 167.162 118.532 169.969C121.277 175.582 125.309 183.251 129.877 191.672C134.441 200.088 138.542 207.718 141.401 213.284C142.783 215.995 143.922 218.224 144.765 219.88C145.136 220.597 145.439 221.188 145.692 221.674C145.913 222.08 146.037 222.291 146.06 222.284" fill="#263238"/>
<path fill-rule="evenodd" clip-rule="evenodd" d="M81.711 248.962C81.7266 248.985 81.9587 248.9 82.3869 248.721L84.2473 247.9C85.9494 247.128 88.2473 246.085 91.0399 244.816C96.7797 242.212 104.756 238.711 113.58 234.855C122.408 230.997 130.351 227.417 136.017 224.692C138.852 223.328 141.131 222.204 142.685 221.394C143.398 221.015 143.988 220.705 144.465 220.451C144.868 220.228 145.075 220.096 145.06 220.075C145.043 220.054 144.812 220.138 144.38 220.316C143.883 220.537 143.269 220.81 142.522 221.139L135.729 224.22C129.995 226.826 122.014 230.328 113.186 234.186C104.363 238.041 96.4199 241.621 90.7526 244.345C87.9166 245.707 85.6388 246.833 84.0849 247.642C83.3728 248.023 82.7833 248.333 82.3034 248.587C81.9018 248.81 81.6963 248.938 81.711 248.962Z" fill="#263238"/>
</g>
</svg>
