<svg width="192" height="272" viewBox="0 0 192 272" fill="none" xmlns="http://www.w3.org/2000/svg">
<path fill-rule="evenodd" clip-rule="evenodd" d="M-38.2395 255.942C-73.5099 218.163 -71.4917 162.352 -59.5933 114.326C-57.6068 106.308 -56.6884 97.6105 -51.3512 91.3367C-46.0142 85.0688 -36.0418 82.1225 -29.5481 87.0573C-24.1621 91.1501 -23.0327 98.678 -20.9069 105.157C-18.0828 113.777 -12.7913 121.537 -5.84148 127.254C-1.27649 131.011 4.72616 133.991 10.3884 132.266C18.1517 129.899 21.0118 120.452 22.6665 112.406C25.7492 97.4168 28.8313 82.4306 31.9097 67.4426C33.5648 59.4047 35.2782 51.1979 39.3901 44.1051C43.4983 37.0107 50.5088 31.1008 58.589 30.5779C66.669 30.0561 75.1619 36.4613 75.1047 44.6641C75.0821 48.0765 73.6955 51.3317 73.2125 54.7126C72.7274 58.0942 73.4963 62.1097 76.4597 63.7085C79.4603 65.3309 83.1485 63.7353 86.0458 61.8902C96.0362 55.5388 103.867 46.2839 111.316 37.0078C118.768 27.7323 126.116 18.179 135.5 10.9252C144.88 3.67567 156.751 -1.12952 168.369 0.654093C179.986 2.43967 190.713 12.1325 191.217 24.0383C191.726 35.98 182.698 46.0676 173.578 53.7098C160.052 65.0502 144.908 74.4047 128.781 81.3816C125.873 82.6438 122.721 84.0035 121.122 86.7721C118.247 91.7593 122.183 98.1497 127.086 101.028C132.64 104.292 139.252 105.043 145.346 107.109C151.441 109.172 157.626 113.372 158.734 119.791C160.276 128.695 151.6 135.846 143.664 140.051C127.769 148.473 110.463 154.115 92.7346 156.661C86.3808 157.573 79.7718 158.153 74.1366 161.295C68.5005 164.438 64.1016 171.047 65.775 177.311C67.4475 183.585 74.4382 186.959 80.8569 187.118C87.2734 187.282 93.5192 185.097 99.875 184.122C111.773 182.29 125.839 186.072 130.87 197.107C134.178 204.359 132.736 213.179 128.805 220.152C124.876 227.13 118.755 232.557 112.442 237.425C90.3839 254.431 64.2388 266.343 36.8026 269.797C9.37028 273.252 -14.8185 270.634 -38.2393 255.941" fill="#00CCCC"/>
</svg>
